Simulation
nRows=15
nColumns=15
endheader
time  TH_x TH_y TH_z SC_y  SC_z  SC_x  AC_y  AC_z  AC_x  GH_y  GH_z  GH_yy  EL_x  PS_y
0.0  0.000000  0.000000  0.000000  -23.955950302516325  2.640012209487123  1.4644519579071669  54.09936159747997  7.994003278615598  4.986155881732876  61.621903276326165  5.54822549615604  -9.33336102329418  21.874793194679565  120.000000
0.02849999999999998  0.000000  0.000000  0.000000  -23.707376509019984  2.6921924077449226  1.1897332735330493  53.973516214001  8.22124289826201  5.105591794163517  61.46096539886026  6.709755541433585  -9.403528274056537  21.294606351046152  120.000000
0.05699999999999996  0.000000  0.000000  0.000000  -23.460249581235885  2.7644990314143585  0.8949910663570954  53.82631000836347  8.468523533882374  5.219854434052143  61.2019740628382  7.872495450342165  -9.526584971280597  20.713330843567977  120.000000
0.08549999999999994  0.000000  0.000000  0.000000  -23.2644937078163  2.843866614385428  0.6076973937838736  53.6630228357874  8.744543489361781  5.331640770584245  60.98803022884735  9.068034892865507  -9.835773193350727  20.13922198712326  120.000000
0.11399999999999992  0.000000  0.000000  0.000000  -23.13870786051687  2.9340447927784017  0.3464545704263558  53.50011053389666  9.060894268783844  5.435639377341852  60.86388307749063  10.332491744487976  -10.371771246426839  19.584240779843388  120.000000
0.1424999999999999  0.000000  0.000000  0.000000  -23.091325581888963  3.031552802440299  0.12723672662633426  53.351556423816604  9.419557506502764  5.528443054360109  60.82635951689174  11.688759728677784  -11.131706591065555  19.060496656295633  120.000000
0.17099999999999987  0.000000  0.000000  0.000000  -23.11567077512231  3.132088966387739  -0.03987090859449398  53.2295932653601  9.817021773334018  5.6111685028436336  60.83832806265996  13.150174962110967  -12.081978826501595  18.58347941659741  120.000000
0.19949999999999987  0.000000  0.000000  0.000000  -23.198938458355276  3.2281218029293455  -0.14603133980260571  53.1440812036348  10.246115006638957  5.685293176242496  60.835912880151156  14.720103877302217  -13.165517569384365  18.167792371371796  120.000000
0.22799999999999984  0.000000  0.000000  0.000000  -23.328352140446764  3.3147998041250677  -0.18593898948614315  53.10377050485478  10.698557377093582  5.753695258945465  60.753874224778315  16.3956484198636  -14.323691767370805  17.82909513580089  120.000000
0.25649999999999984  0.000000  0.000000  0.000000  -23.49174027736264  3.3871394322104527  -0.15629698078855545  53.11552378448169  11.166258306969025  5.817620953638083  60.53374660035971  18.16718914310514  -15.50147187992179  17.579645947506403  120.000000
0.2849999999999998  0.000000  0.000000  0.000000  -23.680830118943152  3.444168737618149  -0.05510441963589781  53.18523965234707  11.64338668524515  5.877639652780013  60.1357306900488  20.021605251231367  -16.656006396089847  17.428902922532906  120.000000
0.3134999999999998  0.000000  0.000000  0.000000  -23.890596994555533  3.4880132451884096  0.11901189561724479  53.31608111700975  12.126757808372481  5.932700595965956  59.542378151608695  21.942829095295487  -17.760086471430967  17.37800051535209  120.000000
0.34199999999999975  0.000000  0.000000  0.000000  -24.118282628621348  3.5220449818567894  0.3672626393973049  53.508185966166685  12.615178244269948  5.981716174511015  58.761000171551174  23.912574366880847  -18.803060903441697  17.419765345317888  120.000000
0.3704999999999997  0.000000  0.000000  0.000000  -24.362453421457534  3.5488982475113593  0.6889643186645033  53.75892684652624  13.106976802140345  6.024361415967405  57.82443358187023  25.911234320759107  -19.79325578674054  17.537719049899874  120.000000
0.39899999999999974  0.000000  0.000000  0.000000  -24.620961828569325  3.5689791096110337  1.0824249365226235  54.063142877502656  13.599713076863871  6.061030118051113  56.78095981455549  27.91737620214731  -20.747302483771566  17.710120240475945  120.000000
